:SAMPLES-PER-SECOND 30
:FRAME-RANGE 1-2091
:FULLY-SPECIFIED
:DEGREES
1569
root  19.6415 39.3468 42.1183 176.057 -52.2394 -175.995
RightUpLeg  -2.93541 -6.45439 1.13687
RightLeg  17.5051 -4.99375 0.413403
RightFoot  -13.2849 -0.0712453 1.10312
RightToes  5.38607e-012 1.2921e-014 -6.02303e-014
Spine  -2.38238 3.80996 16.1369
Spine1  6.09142 5.528 -6.84624
HEad  16.5012 -23.192 -2.69766
LeftShoulder1  1.16539 -1.17362 -19.7897
LeftArm  8.03679 -1.36998 -59.4236
LeftForeArm  33.4255 -5.99079 -13.1662
LeftHand  -0.0573692 4.3165 4.06417
RightShoulder  3.21426 7.87759 22.6287
RightArm  -0.110917 39.9468 81.5094
RightForeArm  48.1709 2.43129 10.4194
RightHand  -1.01506 0.0113924 -21.7212
LeftUpLeg  -23.3133 0.0684206 3.04975
LeftLeg  45.9342 5.55653 6.518
LeftFoot  -1.58705 0.420655 -4.81752
LeftToes  -7.20997e-011 3.75522e-011 -2.80735e-011
1570
root  18.8371 39.3792 41.3297 177.037 -53.9617 -176.819
RightUpLeg  -0.767894 -6.86074 0.533579
RightLeg  16.5189 -6.21482 0.3323
RightFoot  -14.3702 -0.0649505 1.22322
RightToes  5.38607e-012 1.2921e-014 -6.02303e-014
Spine  -2.20422 4.63139 16.4893
Spine1  5.67844 6.45406 -8.13512
HEad  15.7048 -25.4053 -1.55305
LeftShoulder1  1.14337 -1.10368 -19.6961
LeftArm  6.71426 0.153708 -57.7935
LeftForeArm  33.815 -4.87304 -13.411
LeftHand  -0.0487874 4.6581 4.38357
RightShoulder  3.09606 8.23936 20.5737
RightArm  1.67802 44.5273 85.2155
RightForeArm  44.1722 6.73394 9.23783
RightHand  -1.17822 1.1922 -20.7594
LeftUpLeg  -24.0939 0.0515513 1.95223
LeftLeg  36.7595 6.44631 5.50042
LeftFoot  -1.15029 0.340531 -3.74161
LeftToes  -7.20997e-011 3.75522e-011 -2.80735e-011
1571
root  17.9963 39.3885 40.5762 178.208 -55.5055 -177.644
RightUpLeg  1.35437 -6.95902 0.0205929
RightLeg  15.2533 -7.32424 0.320334
RightFoot  -15.3785 -0.0459939 1.64916
RightToes  5.38607e-012 1.2921e-014 -6.02303e-014
Spine  -2.15306 5.31662 16.6952
Spine1  5.40273 7.23626 -9.31879
HEad  14.6398 -26.6742 -0.43863
LeftShoulder1  1.12957 -1.04777 -19.713
LeftArm  4.78148 1.86813 -55.5508
LeftForeArm  34.7082 -3.35185 -13.5814
LeftHand  -0.047185 4.67628 4.19011
RightShoulder  2.91106 8.37945 18.5189
RightArm  3.78206 49.2188 88.5315
RightForeArm  39.8569 10.2678 7.51432
RightHand  -1.3212 2.18623 -20.2696
LeftUpLeg  -24.1683 0.680555 0.769176
LeftLeg  26.2235 7.11648 4.12733
LeftFoot  0.0659202 0.431142 -4.32081
LeftToes  -7.20997e-011 3.75522e-011 -2.80735e-011
1572
root  17.1122 39.3567 39.866 179.334 -56.7942 -178.192
RightUpLeg  3.285 -6.78774 -0.150187
RightLeg  13.9318 -8.65313 0.202194
RightFoot  -16.2487 -0.0184169 2.13771
RightToes  5.38607e-012 1.2921e-014 -6.02303e-014
Spine  -2.33295 5.85743 17.0374
Spine1  5.41807 7.9186 -10.5706
HEad  13.2683 -27.3155 0.77062
LeftShoulder1  1.09529 -0.933473 -19.5952
LeftArm  2.97135 3.76901 -53.2765
LeftForeArm  36.7534 -1.77906 -13.626
LeftHand  -0.0265815 5.32931 4.55468
RightShoulder  2.73209 8.51606 16.5583
RightArm  4.30072 53.7859 91.0738
RightForeArm  37.2067 12.7377 5.45895
RightHand  -1.42907 2.96475 -19.913
LeftUpLeg  -24.0211 0.117603 0.034276
LeftLeg  15.7369 8.38172 2.98173
LeftFoot  0.359392 0.474271 -4.64966
LeftToes  -7.20997e-011 3.75522e-011 -2.80735e-011
1573
root  16.1824 39.2831 39.2042 -179.623 -57.642 -178.544
RightUpLeg  5.12818 -6.52408 -0.167316
RightLeg  12.5578 -9.69723 0.0872629
RightFoot  -17.0115 0.0307767 2.94779
RightToes  5.38607e-012 1.2921e-014 -6.02303e-014
Spine  -2.38309 6.23933 17.3239
Spine1  5.35144 8.4851 -11.7502
HEad  11.9204 -27.4421 1.9123
LeftShoulder1  1.05235 -0.786659 -19.463
LeftArm  1.49913 6.28024 -50.8711
LeftForeArm  38.8001 -0.938759 -13.479
LeftHand  -0.0110483 5.78713 4.49972
RightShoulder  2.51859 8.36277 14.8839
RightArm  4.39396 57.6608 92.9113
RightForeArm  34.4481 14.2093 3.93055
RightHand  -1.56808 4.02127 -19.4359
LeftUpLeg  -23.9736 -1.65508 -0.120004
LeftLeg  6.39409 10.1482 2.27375
LeftFoot  -0.507073 0.452514 -4.7394
LeftToes  -7.20997e-011 3.75522e-011 -2.80735e-011
1574
root  15.1889 39.1698 38.584 -178.787 -57.8678 -178.647
RightUpLeg  6.89655 -6.65394 -0.490638
RightLeg  11.3573 -9.46884 0.452456
RightFoot  -17.7557 0.0761518 3.50497
RightToes  5.38607e-012 1.2921e-014 -6.02303e-014
Spine  -2.63144 6.49553 17.3763
Spine1  5.62467 8.88196 -12.4731
HEad  10.4903 -26.8496 2.97075
LeftShoulder1  0.990025 -0.533582 -19.5388
LeftArm  1.19149 8.97347 -48.2851
LeftForeArm  38.361 -0.336657 -13.527
LeftHand  -0.00348827 6.04666 4.31424
RightShoulder  2.33696 8.26354 13.3555
RightArm  4.39483 60.5454 94.1214
RightForeArm  33.1053 14.5846 2.98895
RightHand  -1.67363 4.76812 -19.2401
LeftUpLeg  -24.3853 -2.45381 -0.38542
LeftLeg  -0.581841 10.8914 2.25871
LeftFoot  -1.80197 0.302046 -3.49032
LeftToes  -7.20997e-011 3.75522e-011 -2.80735e-011
1575
root  14.1068 39.0227 37.981 -178.576 -57.5535 -178.267
RightUpLeg  8.45855 -6.98 -0.76545
RightLeg  11.2367 -8.44049 0.583882
RightFoot  -18.319 0.137856 4.296
RightToes  5.38607e-012 1.2921e-014 -6.02303e-014
Spine  -2.7042 6.52595 17.4631
Spine1  5.84306 9.02246 -12.9249
HEad  9.12719 -25.577 3.91074
LeftShoulder1  0.901791 -0.186983 -19.5723
LeftArm  0.728395 11.7537 -45.9361
LeftForeArm  38.2036 0.47355 -13.5343
LeftHand  -0.00351574 6.09496 4.09508
RightShoulder  2.20727 8.03157 12.5442
RightArm  4.82976 62.3181 94.767
RightForeArm  33.4737 13.6051 2.48459
RightHand  -1.78341 4.93918 -20.1342
LeftUpLeg  -25.117 -2.63732 -0.0767132
LeftLeg  -3.68051 12.4315 2.07143
LeftFoot  -4.0456 0.277578 -3.97261
LeftToes  -7.20997e-011 3.75522e-011 -2.80735e-011
